<svg xmlns="http://www.w3.org/2000/svg" viewBox="0 0 64 64"><path d="M63,10.69V53.31H1V10.69Zm-3.88,3.87H4.88V49.44H59.12ZM13,41.63H9.57l7.11-19h3.54l7.09,19H23.83l-1.7-4.85H14.65Zm5.33-16.2c0,.2-.08.4-.11.61a3.26,3.26,0,0,1-.14.6l-2.63,7.57h5.84l-2.66-7.57a3.4,3.4,0,0,1-.14-.59c0-.21-.06-.42-.1-.62Zm13.92,16.2H29.18V21.53h3.09v8.9h0a5.8,5.8,0,0,1,1.93-2,5,5,0,0,1,2.67-.7,5.24,5.24,0,0,1,2.5.56,4.77,4.77,0,0,1,1.71,1.5,6.2,6.2,0,0,1,1,2.15,10.39,10.39,0,0,1,.3,2.51,11.24,11.24,0,0,1-.34,2.8A7.35,7.35,0,0,1,41,39.64a5.22,5.22,0,0,1-1.88,1.67,5.8,5.8,0,0,1-2.78.62,4.44,4.44,0,0,1-4-2.27h0Zm0-5.69a3.91,3.91,0,0,0,.24,1.37,3.77,3.77,0,0,0,.67,1.14,3.1,3.1,0,0,0,1,.77,3.31,3.31,0,0,0,1.38.29,3.11,3.11,0,0,0,1.76-.46,3.42,3.42,0,0,0,1.12-1.18,5.28,5.28,0,0,0,.6-1.63,9.23,9.23,0,0,0,.19-1.79,6.93,6.93,0,0,0-.19-1.56,4.31,4.31,0,0,0-.57-1.37,2.8,2.8,0,0,0-1-1,3,3,0,0,0-1.55-.37,3.38,3.38,0,0,0-1.56.34,3.26,3.26,0,0,0-1.14.89,4.27,4.27,0,0,0-.7,1.3,5.09,5.09,0,0,0-.24,1.56Zm19.14,6a7.41,7.41,0,0,1-2.76-.5A6.2,6.2,0,0,1,46.5,40a6.31,6.31,0,0,1-1.36-2.14,7.52,7.52,0,0,1-.49-2.75,8.6,8.6,0,0,1,.52-3,6.69,6.69,0,0,1,1.47-2.35,6.4,6.4,0,0,1,2.3-1.51,8.32,8.32,0,0,1,3-.53,9.26,9.26,0,0,1,1.67.15,7.76,7.76,0,0,1,1.6.49v2.87a5.86,5.86,0,0,0-1.44-.77,4.52,4.52,0,0,0-1.59-.29,4.43,4.43,0,0,0-1.87.38,4,4,0,0,0-1.38,1,4.23,4.23,0,0,0-.86,1.51A5.53,5.53,0,0,0,47.8,35a4.81,4.81,0,0,0,1.12,3.27,4,4,0,0,0,3.18,1.27,4.47,4.47,0,0,0,1.67-.32,6.14,6.14,0,0,0,1.48-.86V41a6.33,6.33,0,0,1-1.88.73A9.61,9.61,0,0,1,51.38,41.93Z"/></svg>