<svg xmlns="http://www.w3.org/2000/svg" viewBox="0 0 64 64"><path d="M44,23.75v16.5H20V23.75Zm-1.5,1.5h-21v13.5h21ZM24.65,35.73H23.32l2.75-7.36h1.37l2.74,7.36H28.84l-.66-1.88H25.29Zm2.06-6.27a1.85,1.85,0,0,1,0,.23,2,2,0,0,1-.05.24l-1,2.93h2.26l-1-2.93a1.55,1.55,0,0,1,0-.23c0-.08,0-.16,0-.24Zm5.4,6.27h-1.2V28h1.2v3.44h0a2.19,2.19,0,0,1,.74-.77,1.94,1.94,0,0,1,1-.27,2.1,2.1,0,0,1,1,.21,2,2,0,0,1,.66.58,2.56,2.56,0,0,1,.37.84A3.85,3.85,0,0,1,36,33,4.26,4.26,0,0,1,35.88,34a2.8,2.8,0,0,1-.41.93,2.05,2.05,0,0,1-.73.64,2.21,2.21,0,0,1-1.08.24A1.7,1.7,0,0,1,32.12,35h0Zm0-2.21a1.4,1.4,0,0,0,.1.54,1.5,1.5,0,0,0,.26.44,1.09,1.09,0,0,0,.4.29,1.31,1.31,0,0,0,1.21-.06,1.38,1.38,0,0,0,.44-.46,2,2,0,0,0,.23-.63A3.23,3.23,0,0,0,34.8,33a2.4,2.4,0,0,0-.07-.6,1.86,1.86,0,0,0-.22-.54,1.17,1.17,0,0,0-1-.51,1.26,1.26,0,0,0-.6.13,1.16,1.16,0,0,0-.44.34,1.47,1.47,0,0,0-.27.51,1.72,1.72,0,0,0-.1.6Zm7.41,2.32a2.83,2.83,0,0,1-1.07-.19,2.44,2.44,0,0,1-.82-.54,2.39,2.39,0,0,1-.52-.82,2.87,2.87,0,0,1-.19-1.07,3.13,3.13,0,0,1,.2-1.17,2.51,2.51,0,0,1,.57-.91,2.39,2.39,0,0,1,.89-.59,3.3,3.3,0,0,1,1.17-.2,3.49,3.49,0,0,1,.65.06,3.38,3.38,0,0,1,.62.18v1.12a2,2,0,0,0-.56-.3,1.61,1.61,0,0,0-.61-.11,1.83,1.83,0,0,0-.73.14,1.52,1.52,0,0,0-.53.4,1.68,1.68,0,0,0-.34.58,2.48,2.48,0,0,0-.11.73,1.82,1.82,0,0,0,.43,1.26,1.55,1.55,0,0,0,1.23.5,1.61,1.61,0,0,0,.65-.13,2.35,2.35,0,0,0,.57-.33v1a2.4,2.4,0,0,1-.73.28A3.3,3.3,0,0,1,39.5,35.84Z"/></svg>