<svg xmlns="http://www.w3.org/2000/svg" viewBox="0 0 64 64"><path d="M41,44.07a24.63,24.63,0,0,1-7.32,4.19,24,24,0,0,1-8.28,1.45,23.87,23.87,0,0,1-9.52-1.9A24.38,24.38,0,0,1,2.9,34.87,23.79,23.79,0,0,1,1,25.36a24.14,24.14,0,0,1,.87-6.49A23.74,23.74,0,0,1,4.32,13,24.2,24.2,0,0,1,8.13,8.13,24.48,24.48,0,0,1,13,4.32,24.25,24.25,0,0,1,25.36,1,24.34,24.34,0,0,1,42.59,8.13a24.24,24.24,0,0,1,7.12,17.23,24,24,0,0,1-1.45,8.28A24.72,24.72,0,0,1,44.07,41L62.34,59.23A2.11,2.11,0,0,1,63,60.78a2.2,2.2,0,0,1-3.77,1.56Zm4.32-18.71a19.33,19.33,0,0,0-.71-5.28,19.83,19.83,0,0,0-2-4.76,20.34,20.34,0,0,0-3.13-4,19.42,19.42,0,0,0-4-3.13,19.79,19.79,0,0,0-10-2.72A19.41,19.41,0,0,0,17.61,7,20.14,20.14,0,0,0,7,17.61a19.41,19.41,0,0,0-1.57,7.75A19.65,19.65,0,0,0,7,33.14,19.89,19.89,0,0,0,17.57,43.73a19.53,19.53,0,0,0,7.79,1.56,19.29,19.29,0,0,0,7.75-1.58,20,20,0,0,0,10.6-10.6A19.28,19.28,0,0,0,45.28,25.36ZM23.14,27.57H14.29a2.13,2.13,0,0,1-1.56-.66,2.1,2.1,0,0,1-.66-1.55,2.25,2.25,0,0,1,2.22-2.22h8.85V14.29a2.25,2.25,0,0,1,2.22-2.22,2.1,2.1,0,0,1,1.55.66,2.13,2.13,0,0,1,.66,1.56v8.85h8.86A2.13,2.13,0,0,1,38,23.8a2.16,2.16,0,0,1,.65,1.56,2.24,2.24,0,0,1-2.21,2.21H27.57v8.86a2.25,2.25,0,0,1-2.21,2.21A2.13,2.13,0,0,1,23.8,38a2.1,2.1,0,0,1-.66-1.55Z"/></svg>