<svg xmlns="http://www.w3.org/2000/svg" viewBox="0 0 64 64"><path d="M35.47,36.67a9.41,9.41,0,0,1-2.83,1.62,9.43,9.43,0,0,1-6.89-.17,9.4,9.4,0,0,1-5-5A9.23,9.23,0,0,1,20,29.43a9.11,9.11,0,0,1,.34-2.51,9.24,9.24,0,0,1,.95-2.26,9.42,9.42,0,0,1,5.62-4.32,9.43,9.43,0,0,1,5,0,9.24,9.24,0,0,1,2.26.95,9.34,9.34,0,0,1,3.38,3.38,9.33,9.33,0,0,1,1,2.25,9.5,9.5,0,0,1,.34,2.51,9.2,9.2,0,0,1-.57,3.21,9.41,9.41,0,0,1-1.62,2.83l7.07,7.07a.83.83,0,0,1,.26.6.85.85,0,0,1-.26.61.84.84,0,0,1-.6.25.86.86,0,0,1-.6-.25Zm1.67-7.24A7.65,7.65,0,0,0,34.88,24a7.81,7.81,0,0,0-3.41-2,7.67,7.67,0,0,0-2-.28,7.59,7.59,0,0,0-3,.61,7.84,7.84,0,0,0-4.11,4.11,7.83,7.83,0,0,0,0,6,7.62,7.62,0,0,0,4.1,4.1,7.56,7.56,0,0,0,3,.6,7.42,7.42,0,0,0,3-.61,7.71,7.71,0,0,0,4.1-4.1A7.42,7.42,0,0,0,37.14,29.43Zm-8.57.86H25.14a.83.83,0,0,1-.6-.26.85.85,0,0,1,0-1.2.83.83,0,0,1,.6-.26h3.43V25.14a.83.83,0,0,1,.26-.6.85.85,0,0,1,1.2,0,.83.83,0,0,1,.26.6v3.43h3.42a.83.83,0,0,1,.61.26.84.84,0,0,1,0,1.2.83.83,0,0,1-.61.26H30.29v3.42a.83.83,0,0,1-.26.61.84.84,0,0,1-1.2,0,.83.83,0,0,1-.26-.61Z"/></svg>