<svg xmlns="http://www.w3.org/2000/svg" viewBox="0 0 64 64"><path d="M4.77,62.34A2.12,2.12,0,0,1,3.21,63a2.13,2.13,0,0,1-1.55-.66A2.13,2.13,0,0,1,1,60.78a2.11,2.11,0,0,1,.66-1.55L19.93,41a24.72,24.72,0,0,1-4.19-7.32,24,24,0,0,1-1.45-8.28A24.33,24.33,0,0,1,32.17,1.87,24.38,24.38,0,0,1,51,4.32a24.48,24.48,0,0,1,4.91,3.81A24.2,24.2,0,0,1,59.68,13a23.74,23.74,0,0,1,2.45,5.83A24.14,24.14,0,0,1,63,25.36a23.79,23.79,0,0,1-1.9,9.51A24.38,24.38,0,0,1,48.16,47.81a24.6,24.6,0,0,1-17.8.45A24.63,24.63,0,0,1,23,44.07ZM20.29,33.11a20,20,0,0,0,10.6,10.6,19.29,19.29,0,0,0,7.75,1.58,19.53,19.53,0,0,0,7.79-1.56A19.89,19.89,0,0,0,57,33.14a19.65,19.65,0,0,0,1.55-7.78A19.41,19.41,0,0,0,57,17.61,20.14,20.14,0,0,0,46.39,7a19.91,19.91,0,0,0-13-.86,19.68,19.68,0,0,0-4.76,2,19.42,19.42,0,0,0-4.05,3.13,20.34,20.34,0,0,0-3.13,4,19.83,19.83,0,0,0-2,4.76,19.94,19.94,0,0,0,.86,13Zm20.57,3.32A2.1,2.1,0,0,1,40.2,38a2.13,2.13,0,0,1-1.56.66,2.25,2.25,0,0,1-2.21-2.21V27.57H27.57a2.24,2.24,0,0,1-2.21-2.21A2.16,2.16,0,0,1,26,23.8a2.13,2.13,0,0,1,1.56-.66h8.86V14.29a2.13,2.13,0,0,1,.66-1.56,2.1,2.1,0,0,1,1.55-.66,2.25,2.25,0,0,1,2.22,2.22v8.85h8.85a2.25,2.25,0,0,1,2.22,2.22,2.1,2.1,0,0,1-.66,1.55,2.13,2.13,0,0,1-1.56.66H40.86Z"/></svg>