<svg xmlns="http://www.w3.org/2000/svg" viewBox="0 0 64 64"><path d="M1.17,60.58,5,45.42a5.76,5.76,0,0,1,.39-1A3.45,3.45,0,0,1,6,43.58L45.56,4a10.13,10.13,0,0,1,3.33-2.22A10.27,10.27,0,0,1,52.81,1a10.06,10.06,0,0,1,4,.78A10.18,10.18,0,0,1,60,3.91,9.78,9.78,0,0,1,62.11,7.1a10,10,0,0,1,.78,4,11.38,11.38,0,0,1-.84,4.29A10.89,10.89,0,0,1,59.65,19L20.53,58.13a3.61,3.61,0,0,1-.84.61,5.8,5.8,0,0,1-1,.4L3.53,62.94a2.73,2.73,0,0,1-.46.06,1.91,1.91,0,0,1-1.38-.57,1.81,1.81,0,0,1-.58-1.36A2.67,2.67,0,0,1,1.17,60.58Zm55.5-44.2a10,10,0,0,0,1.18-1.47,7.55,7.55,0,0,0,.82-1.66A6.37,6.37,0,0,0,59,11.2a6.62,6.62,0,0,0-.46-2.5,6.16,6.16,0,0,0-1.27-2A5.69,5.69,0,0,0,55.3,5.4a6.35,6.35,0,0,0-2.49-.48,5.65,5.65,0,0,0-2.05.34,6.67,6.67,0,0,0-1.64.89A11.11,11.11,0,0,0,47.68,7.4L46.26,8.84l9,9C55.75,17.33,56.22,16.85,56.67,16.38ZM43.5,11.6,8.77,46.37l-3,12,12-3L52.48,20.57Z"/></svg>