<svg xmlns="http://www.w3.org/2000/svg" viewBox="0 0 64 64"><path d="M15.15,63a5.74,5.74,0,0,1-3.8-1.39,6.6,6.6,0,0,1-2.44-6.85c.88-3.09,1.29-4.58,1.3-4.58a1.82,1.82,0,1,1,3.51,1s-.41,1.5-1.3,4.6c-.48,1.69,1.18,3,1.26,3.06.37.31,1.92,1.38,4.29-.87,3-2.87,19-18.87,26.75-26.56l3.73-3.73A10.53,10.53,0,0,0,51,22.9a14.17,14.17,0,0,0,.69-4.36A13.89,13.89,0,0,0,24.2,15.61c-.1.34-5.54,17.58-7.83,25.68a3.05,3.05,0,0,0,.74,3l4.06,4.19A1.82,1.82,0,0,1,18.55,51l-4.06-4.19a6.71,6.71,0,0,1-1.63-6.47c2.3-8.16,7.76-25.44,7.82-25.62a17.54,17.54,0,1,1,33.8,9.24A13.88,13.88,0,0,1,51,30.24L47.29,34c-6.94,6.93-20.65,20.62-25.53,25.39H41A1.82,1.82,0,1,1,41,63H15.15ZM44.4,26.66a1.83,1.83,0,0,1-1.32-3.08,7.31,7.31,0,0,0-5.3-12.35,8.07,8.07,0,0,0-1.48.14,1.82,1.82,0,1,1-.73-3.57,10.83,10.83,0,0,1,2.21-.22,11,11,0,0,1,7.94,18.51A1.8,1.8,0,0,1,44.4,26.66Z"/></svg>