<svg xmlns="http://www.w3.org/2000/svg" viewBox="0 0 64 64"><path d="M28.6,44a2.22,2.22,0,0,1-.85-.17,2.13,2.13,0,0,1-.73-.49L20.66,37a1.94,1.94,0,0,1-.48-.73,2.17,2.17,0,0,1,0-1.73,2.11,2.11,0,0,1,.48-.73L33.79,20.66a2.17,2.17,0,0,1,.74-.49,2.27,2.27,0,0,1,.86-.17,2.17,2.17,0,0,1,1.59.66L43.34,27A2.17,2.17,0,0,1,44,28.61a2.27,2.27,0,0,1-.17.86,2.17,2.17,0,0,1-.49.74L31.05,42.5h7.7a.75.75,0,0,1,0,1.5Zm0-1.49a.71.71,0,0,0,.53-.22l2.53-2.53-7.43-7.43-2.53,2.53a.72.72,0,0,0-.21.53,1,1,0,0,0,.05.28.78.78,0,0,0,.16.24l6.38,6.38A.69.69,0,0,0,28.61,42.51ZM42.5,28.61a.69.69,0,0,0-.22-.52l-6.37-6.37a.69.69,0,0,0-.52-.22.71.71,0,0,0-.53.22l-9.55,9.55,7.42,7.42,9.55-9.55A.71.71,0,0,0,42.5,28.61Z"/></svg>