<svg xmlns="http://www.w3.org/2000/svg" viewBox="0 0 64 64"><path d="M23.22,63A5.77,5.77,0,0,1,21,62.56a5.65,5.65,0,0,1-1.88-1.26L2.7,44.87a5.85,5.85,0,0,1,0-8.24L36.63,2.7a5.69,5.69,0,0,1,1.89-1.26A5.91,5.91,0,0,1,40.75,1a5.62,5.62,0,0,1,4.12,1.7L61.3,19.13A5.62,5.62,0,0,1,63,23.25a5.91,5.91,0,0,1-.44,2.23,5.69,5.69,0,0,1-1.26,1.89L29.55,59.12H49.44a2,2,0,0,1,1.93,1.94A2,2,0,0,1,49.44,63Zm0-3.84a1.86,1.86,0,0,0,1.36-.58L31.15,52,12,32.85,5.42,39.39a1.84,1.84,0,0,0-.54,1.36,2.12,2.12,0,0,0,.13.73,1.76,1.76,0,0,0,.41.63L21.89,58.58A1.88,1.88,0,0,0,23.25,59.16ZM59.12,23.25a1.87,1.87,0,0,0-.57-1.36L42.11,5.45a1.91,1.91,0,0,0-2.72,0L14.71,30.12,33.88,49.29,58.55,24.61A1.85,1.85,0,0,0,59.12,23.25Z"/></svg>