<svg xmlns="http://www.w3.org/2000/svg" viewBox="0 0 64 64"><path d="M32,8.75a41.86,41.86,0,0,1,8.13.83,37.42,37.42,0,0,1,8,2.56,31.55,31.55,0,0,1,7.05,4.36,22.33,22.33,0,0,1,5.29,6.24,19.53,19.53,0,0,1,1.89,4.46,18,18,0,0,1,0,9.6,19.53,19.53,0,0,1-1.89,4.46,22.33,22.33,0,0,1-5.29,6.24,31.55,31.55,0,0,1-7.05,4.36,37.42,37.42,0,0,1-8,2.56,41.86,41.86,0,0,1-8.13.83,41.86,41.86,0,0,1-8.13-.83,37.42,37.42,0,0,1-8-2.56,31.55,31.55,0,0,1-7-4.36,22.33,22.33,0,0,1-5.29-6.24A19.53,19.53,0,0,1,1.65,36.8a18,18,0,0,1,0-9.6,19.53,19.53,0,0,1,1.89-4.46A22.33,22.33,0,0,1,8.83,16.5a31.55,31.55,0,0,1,7.05-4.36,37.42,37.42,0,0,1,8-2.56A41.86,41.86,0,0,1,32,8.75Zm0,42.63A38.53,38.53,0,0,0,37.12,51,34.64,34.64,0,0,0,42.17,50,32,32,0,0,0,47,48.12a27.13,27.13,0,0,0,4.41-2.62,25,25,0,0,0,3.05-2.68,17.81,17.81,0,0,0,2.46-3.18A16.45,16.45,0,0,0,58.53,36a13.83,13.83,0,0,0,0-8.06,16.45,16.45,0,0,0-1.61-3.61,17.81,17.81,0,0,0-2.46-3.18,25,25,0,0,0-3.05-2.68A27.13,27.13,0,0,0,47,15.88a32,32,0,0,0-4.83-1.83A34.64,34.64,0,0,0,37.12,13a37.62,37.62,0,0,0-10.24,0,34.64,34.64,0,0,0-5.05,1.08A32,32,0,0,0,17,15.88a27.13,27.13,0,0,0-4.41,2.62,25,25,0,0,0-3.05,2.68,17.81,17.81,0,0,0-2.46,3.18A16.45,16.45,0,0,0,5.47,28a14.06,14.06,0,0,0,0,8.06,16.45,16.45,0,0,0,1.61,3.61,17.81,17.81,0,0,0,2.46,3.18,25,25,0,0,0,3.05,2.68A27.13,27.13,0,0,0,17,48.12,32,32,0,0,0,21.83,50,34.64,34.64,0,0,0,26.88,51,38.53,38.53,0,0,0,32,51.38Z"/></svg>