<svg xmlns="http://www.w3.org/2000/svg" viewBox="0 0 64 64"><path d="M1,32A30.87,30.87,0,0,1,5.24,16.36,31.72,31.72,0,0,1,16.36,5.24,31,31,0,0,1,40.23,2.11a30.46,30.46,0,0,1,7.41,3.13A31.72,31.72,0,0,1,58.76,16.36a31,31,0,0,1,3.13,23.87,30.46,30.46,0,0,1-3.13,7.41A31.72,31.72,0,0,1,47.64,58.76a31,31,0,0,1-23.87,3.13,30.46,30.46,0,0,1-7.41-3.13A31.72,31.72,0,0,1,5.24,47.64,30.87,30.87,0,0,1,1,32Zm58.13,0a26.83,26.83,0,0,0-1-7.19,27.38,27.38,0,0,0-2.74-6.48,27.76,27.76,0,0,0-9.75-9.75,27.38,27.38,0,0,0-6.48-2.74,27.52,27.52,0,0,0-14.41,0A27.19,27.19,0,0,0,5.84,24.78a27.36,27.36,0,0,0,0,14.44A27.19,27.19,0,0,0,24.78,58.16a27.63,27.63,0,0,0,14.44,0A27.19,27.19,0,0,0,58.16,39.22,26.94,26.94,0,0,0,59.13,32Z"/></svg>