<svg xmlns="http://www.w3.org/2000/svg" viewBox="0 0 64 64"><path d="M20,32A11.91,11.91,0,0,1,21.64,26,12.14,12.14,0,0,1,26,21.64a12,12,0,0,1,12.1,0A12.14,12.14,0,0,1,42.36,26a12,12,0,0,1,0,12.1,12.14,12.14,0,0,1-4.31,4.31,12,12,0,0,1-12.1,0,12.14,12.14,0,0,1-4.31-4.31A11.91,11.91,0,0,1,20,32Zm22.5,0a9.87,9.87,0,0,0-.38-2.78,10.48,10.48,0,0,0-4.83-6.28,10.46,10.46,0,0,0-8.09-1.06,10.06,10.06,0,0,0-2.5,1.06,10.58,10.58,0,0,0-3.76,3.76,10.35,10.35,0,0,0-1.06,2.51,10.43,10.43,0,0,0,0,5.58,10.19,10.19,0,0,0,1.06,2.51,10.58,10.58,0,0,0,3.76,3.76,10.46,10.46,0,0,0,10.6,0,10.58,10.58,0,0,0,3.76-3.76,10.19,10.19,0,0,0,1.06-2.51A9.89,9.89,0,0,0,42.5,32Z"/></svg>