<svg xmlns="http://www.w3.org/2000/svg" viewBox="0 0 64 64"><path d="M32,23a16.5,16.5,0,0,1,3.15.32,15,15,0,0,1,3.09,1A12.33,12.33,0,0,1,41,26,8.79,8.79,0,0,1,43,28.41a7.67,7.67,0,0,1,.73,1.73,7,7,0,0,1,0,3.72A7.67,7.67,0,0,1,43,35.59,8.79,8.79,0,0,1,41,38a12.33,12.33,0,0,1-2.73,1.69,15,15,0,0,1-3.09,1,15.66,15.66,0,0,1-6.3,0,15,15,0,0,1-3.09-1A12.33,12.33,0,0,1,23,38,8.79,8.79,0,0,1,21,35.59a7.67,7.67,0,0,1-.73-1.73,7,7,0,0,1,0-3.72A7.67,7.67,0,0,1,21,28.41,8.79,8.79,0,0,1,23,26a12.33,12.33,0,0,1,2.73-1.69,15,15,0,0,1,3.09-1A16.5,16.5,0,0,1,32,23Zm0,16.5a14.63,14.63,0,0,0,2-.13,13.15,13.15,0,0,0,2-.42,12.83,12.83,0,0,0,1.87-.71,10,10,0,0,0,1.7-1,10.68,10.68,0,0,0,1.19-1A6.91,6.91,0,0,0,41.64,35a6.07,6.07,0,0,0,.63-1.4,5.41,5.41,0,0,0,0-3.12,6.07,6.07,0,0,0-.63-1.4,6.91,6.91,0,0,0-.94-1.23,10.68,10.68,0,0,0-1.19-1,10,10,0,0,0-1.7-1,12.83,12.83,0,0,0-1.87-.71,13.15,13.15,0,0,0-2-.42,15.14,15.14,0,0,0-4,0,13.15,13.15,0,0,0-2,.42,12.83,12.83,0,0,0-1.87.71,10,10,0,0,0-1.7,1,10.68,10.68,0,0,0-1.19,1A6.91,6.91,0,0,0,22.36,29a6.07,6.07,0,0,0-.63,1.4,5.41,5.41,0,0,0,0,3.12,6.07,6.07,0,0,0,.63,1.4,6.91,6.91,0,0,0,.94,1.23,10.68,10.68,0,0,0,1.19,1,10,10,0,0,0,1.7,1,12.83,12.83,0,0,0,1.87.71,13.15,13.15,0,0,0,2,.42A14.63,14.63,0,0,0,32,39.5Z"/></svg>