<svg xmlns="http://www.w3.org/2000/svg" viewBox="0 0 64 64"><path d="M55.51,16.16a6.11,6.11,0,0,1,3.37,3.35,6.23,6.23,0,0,1,0,4.75L47.83,51a17.91,17.91,0,0,1-4.12,6.12,18.69,18.69,0,0,1-12.93,5.37,18,18,0,0,1-7.24-1.4,21.29,21.29,0,0,1-7.34-5,23.86,23.86,0,0,1-4.8-7.44L3.13,28.79a6.11,6.11,0,0,1-.48-2.47,6.2,6.2,0,0,1,.49-2.45,6.12,6.12,0,0,1,1.44-2.14,6.67,6.67,0,0,1,2.07-1.37,6.53,6.53,0,0,1,2.42-.49,6.45,6.45,0,0,1,2.5.5,6.06,6.06,0,0,1,2.08,1.4,6.89,6.89,0,0,1,1.4,2.1l1.89,4.48L26.07,6.23a6.22,6.22,0,0,1,3.35-3.36,6.3,6.3,0,0,1,2.33-.48,6,6,0,0,1,2.42.48,6.14,6.14,0,0,1,1.95,1.29A5.56,5.56,0,0,1,37.6,2.78,6.3,6.3,0,0,1,39.42,2a6,6,0,0,1,2-.21,5.7,5.7,0,0,1,2,.45,5.81,5.81,0,0,1,1.72,1.08,6,6,0,0,1,1.26,1.55,6.72,6.72,0,0,1,.72,1.87,5.7,5.7,0,0,1,.07,2,6,6,0,0,1,2.29.45,6.25,6.25,0,0,1,1.72,1.08,6.69,6.69,0,0,1,1.27,1.55,6.82,6.82,0,0,1,.71,1.87,5.71,5.71,0,0,1,.07,2A6,6,0,0,1,55.51,16.16Zm-.45,6.52A2.11,2.11,0,0,0,53.94,20a2,2,0,0,0-1.58,0,2,2,0,0,0-1.12,1.11L45.71,34.47a1.94,1.94,0,0,1-1.12,1.11,2,2,0,0,1-1.58,0,2.09,2.09,0,0,1-1.12-2.7L49,15.7a2,2,0,0,0,0-1.57A2,2,0,0,0,47.87,13a2,2,0,0,0-1.57,0,2,2,0,0,0-1.13,1.11L38.86,29.41a2.09,2.09,0,0,1-2.7,1.12,2.07,2.07,0,0,1-1.11-1.12,2,2,0,0,1,0-1.58l7.89-19.1a2,2,0,0,0,0-1.58A2,2,0,0,0,40.23,6a2,2,0,0,0-1.12,1.11l-7.89,19.1a2,2,0,0,1-1.12,1.11,2.07,2.07,0,0,1-2.7-2.69L33.71,9.39a2,2,0,0,0,0-1.58A2,2,0,0,0,31,6.7a2.05,2.05,0,0,0-1.13,1.11L20.19,31.3a3.29,3.29,0,0,1-.78,1.16,3.75,3.75,0,0,1-1.11.75,3.43,3.43,0,0,1-1.32.28,3.55,3.55,0,0,1-1.36-.27,3.86,3.86,0,0,1-1.17-.76,3.51,3.51,0,0,1-.79-1.17l-2.43-5.86a2.3,2.3,0,0,0-3-1.24A2.29,2.29,0,0,0,7,27.2l8.25,19.94a19.65,19.65,0,0,0,3.91,6.1,17.14,17.14,0,0,0,6,4,14,14,0,0,0,5.64,1.09,14.55,14.55,0,0,0,10-4.17A14,14,0,0,0,44,49.42Z"/></svg>