<svg xmlns="http://www.w3.org/2000/svg" viewBox="0 0 64 64"><path d="M51.63,9.27a6.15,6.15,0,0,1,6.2,6.2V44.4a18,18,0,0,1-1.47,7.23,18.66,18.66,0,0,1-9.89,9.9A18,18,0,0,1,39.23,63a21.12,21.12,0,0,1-8.67-1.78,24,24,0,0,1-7.28-5L8,40.94a6.27,6.27,0,0,1-1.39-2.09,6.57,6.57,0,0,1-.48-2.46,6.28,6.28,0,0,1,.51-2.53,6.69,6.69,0,0,1,1.39-2.05,6.61,6.61,0,0,1,2-1.38,6.41,6.41,0,0,1,2.5-.5,6.22,6.22,0,0,1,2.46.5,7.31,7.31,0,0,1,2.1,1.41l3.45,3.42V11.33a6,6,0,0,1,.49-2.42,6.12,6.12,0,0,1,3.29-3.29,6,6,0,0,1,2.42-.49,5.87,5.87,0,0,1,2.3.46A5.64,5.64,0,0,1,30,3.74a6.5,6.5,0,0,1,1.37-1.45,6.23,6.23,0,0,1,1.76-.95,6.05,6.05,0,0,1,4,0,6.23,6.23,0,0,1,1.76,1,6.5,6.5,0,0,1,1.37,1.45,5.64,5.64,0,0,1,.84,1.85,5.87,5.87,0,0,1,2.3-.46,6.18,6.18,0,0,1,2,.34,6.4,6.4,0,0,1,1.76,1A6.31,6.31,0,0,1,48.5,7.88a5.59,5.59,0,0,1,.84,1.84A6,6,0,0,1,51.63,9.27Zm2.07,6.2a2.08,2.08,0,0,0-2.07-2.07,2,2,0,0,0-1.45.61,2,2,0,0,0-.61,1.46V29.93A2,2,0,0,1,49,31.39a2,2,0,0,1-2.9,0,2,2,0,0,1-.62-1.46V11.33a2.08,2.08,0,0,0-2.06-2.06,2,2,0,0,0-1.46.61,2,2,0,0,0-.61,1.45V27.87a2,2,0,0,1-.61,1.45,2,2,0,0,1-1.46.61,2.08,2.08,0,0,1-2.06-2.06V7.2a2,2,0,0,0-.62-1.45,2,2,0,0,0-2.9,0A2,2,0,0,0,33,7.2V27.87A2.08,2.08,0,0,1,31,29.93a2,2,0,0,1-1.46-.61,2,2,0,0,1-.61-1.45V11.33a2,2,0,0,0-.61-1.45,2,2,0,0,0-1.46-.61,2.08,2.08,0,0,0-2.06,2.06V36.75a3.29,3.29,0,0,1-.28,1.37,3.66,3.66,0,0,1-.74,1.11,3.18,3.18,0,0,1-1.11.76,3.38,3.38,0,0,1-1.36.28A3.79,3.79,0,0,1,19.91,40a3.29,3.29,0,0,1-1.18-.78l-4.49-4.49a2.2,2.2,0,0,0-1.62-.67,2.28,2.28,0,0,0-1.63.67A2.29,2.29,0,0,0,11,38L26.22,53.28a19.79,19.79,0,0,0,5.94,4.15,17.15,17.15,0,0,0,7.07,1.44,14,14,0,0,0,5.64-1.15,14.71,14.71,0,0,0,4.58-3.1A14.47,14.47,0,0,0,52.55,50,13.83,13.83,0,0,0,53.7,44.4Z"/></svg>