<svg xmlns="http://www.w3.org/2000/svg" viewBox="0 0 64 64"><path d="M51.26,56.91q-3.09,1.52-6.11,3c-2,1-4,2-6.1,3L34.5,53.91l-8.2,8.2V18.22Q34,25.83,41.5,33.4T56.66,48.61H47.11Zm-11-12.51h6.26l-16-16V51.94l5.13-5.14L41,57.37,45.6,55ZM36.84,15.75a2.13,2.13,0,0,1-2.11-2.11,2,2,0,0,1,.63-1.48L39.57,8a2.11,2.11,0,0,1,3.59,1.48,2,2,0,0,1-.62,1.48l-4.22,4.22A2,2,0,0,1,36.84,15.75Zm-19,6.32a2,2,0,0,1-.62,1.48,2,2,0,0,1-1.48.63H9.45a2.13,2.13,0,0,1-2.11-2.11A2,2,0,0,1,8,20.59,2,2,0,0,1,9.45,20h6.32a2.12,2.12,0,0,1,2.1,2.1Zm0-8.43A2,2,0,0,1,16.39,13L12.18,8.8a2.05,2.05,0,0,1,0-3,2.05,2.05,0,0,1,3,0l4.22,4.21A2.07,2.07,0,0,1,20,11.54,2,2,0,0,1,19.36,13,2,2,0,0,1,17.87,13.64ZM13.66,34.72a2,2,0,0,1,.63-1.49L18.5,29a2.09,2.09,0,1,1,3,3L17.25,36.2a2.11,2.11,0,0,1-3.59-1.48ZM28.41,11.54A2.15,2.15,0,0,1,26.3,9.43V3.11a2,2,0,0,1,.63-1.48,2.05,2.05,0,0,1,3,0,2,2,0,0,1,.63,1.48V9.43a2.15,2.15,0,0,1-2.11,2.11Z"/></svg>