<svg xmlns="http://www.w3.org/2000/svg" viewBox="0 0 64 64"><path d="M62.89,61.07a1.81,1.81,0,0,1-.58,1.36,1.91,1.91,0,0,1-1.38.57,2.73,2.73,0,0,1-.46-.06l-15.16-3.8a5.8,5.8,0,0,1-1-.4,3.61,3.61,0,0,1-.84-.61L4.35,19A10.89,10.89,0,0,1,2,15.34a11.38,11.38,0,0,1-.84-4.29,10,10,0,0,1,.78-4A9.78,9.78,0,0,1,4,3.91a10.18,10.18,0,0,1,3.2-2.13,10.06,10.06,0,0,1,4-.78,10.27,10.27,0,0,1,3.92.78A10.13,10.13,0,0,1,18.44,4L58,43.58a3.45,3.45,0,0,1,.62.84,5.76,5.76,0,0,1,.39,1l3.8,15.16A2.67,2.67,0,0,1,62.89,61.07ZM8.77,17.82l9-9L16.32,7.4a11.11,11.11,0,0,0-1.44-1.25,6.67,6.67,0,0,0-1.64-.89,5.65,5.65,0,0,0-2.05-.34A6.35,6.35,0,0,0,8.7,5.4,5.69,5.69,0,0,0,6.76,6.71a6.16,6.16,0,0,0-1.27,2A6.62,6.62,0,0,0,5,11.2a6.37,6.37,0,0,0,.3,2.05,7.55,7.55,0,0,0,.82,1.66,10,10,0,0,0,1.18,1.47C7.78,16.85,8.25,17.33,8.77,17.82Zm2.75,2.75L46.26,55.34l12,3-3-12L20.5,11.6ZM25.46,53.49H18.82v6.62H16.64V53.49H10v-2.2h6.62V44.67h2.18v6.62h6.64Z"/></svg>