<svg xmlns="http://www.w3.org/2000/svg" viewBox="0 0 64 64"><path d="M43.89,43.4a.7.7,0,0,1-.23.53.73.73,0,0,1-.53.22.69.69,0,0,1-.18,0l-5.89-1.48a2.62,2.62,0,0,1-.39-.15,1.27,1.27,0,0,1-.33-.24L21.15,27.05a4.08,4.08,0,0,1-.93-1.41A4.4,4.4,0,0,1,19.89,24a3.87,3.87,0,0,1,.3-1.53A3.68,3.68,0,0,1,21,21.2a4,4,0,0,1,1.24-.83,3.9,3.9,0,0,1,1.53-.3,4,4,0,0,1,1.53.3,3.92,3.92,0,0,1,1.29.87L42,36.61a1.4,1.4,0,0,1,.24.33,2.5,2.5,0,0,1,.15.38l1.47,5.89A.89.89,0,0,1,43.89,43.4Zm-21-16.8,3.49-3.48-.55-.56a4.18,4.18,0,0,0-.56-.49,3.06,3.06,0,0,0-.64-.35,2.44,2.44,0,0,0-.8-.13,2.32,2.32,0,0,0-1,.19,2.21,2.21,0,0,0-.76.51,2.36,2.36,0,0,0-.49.77,2.58,2.58,0,0,0-.18,1,2.45,2.45,0,0,0,.12.8,3,3,0,0,0,.32.64,4,4,0,0,0,.45.57C22.48,26.23,22.67,26.41,22.86,26.6Zm1.07,1.07,13.5,13.51,4.65,1.16-1.17-4.65L27.42,24.19Z"/><path d="M29.35,40.46H26.77V43h-.85V40.46H23.35V39.6h2.57V37h.85V39.6h2.58Z"/></svg>