<svg xmlns="http://www.w3.org/2000/svg" viewBox="0 0 64 64"><defs><style>.pColor{fill:#fff;}</style></defs><path class="pColor" d="M32,2.88a28.46,28.46,0,0,1,7.74,1,28.76,28.76,0,0,1,6.95,2.94A29.5,29.5,0,0,1,57.14,17.31a28.76,28.76,0,0,1,2.94,7,29.32,29.32,0,0,1,0,15.48,28.76,28.76,0,0,1-2.94,6.95A29.5,29.5,0,0,1,46.69,57.14a28.76,28.76,0,0,1-6.95,2.94,28.46,28.46,0,0,1-7.74,1,7.08,7.08,0,0,1-2.83-.57,7.27,7.27,0,0,1-3.88-3.88,7,7,0,0,1-.57-2.83,11.62,11.62,0,0,1,.38-2.94,10.11,10.11,0,0,1,1.18-2.72,2.82,2.82,0,0,1,.32-.48c.09-.12.21-.27.34-.46a11.09,11.09,0,0,0,1.06-2,6.36,6.36,0,0,0,.36-2.29,7.08,7.08,0,0,0-.57-2.83,7.27,7.27,0,0,0-3.88-3.88,7.08,7.08,0,0,0-2.83-.57,6.36,6.36,0,0,0-2.29.36,11.09,11.09,0,0,0-2,1.06c-.19.13-.34.25-.46.34a2.82,2.82,0,0,1-.48.32A10.11,10.11,0,0,1,13.1,38.9a11.56,11.56,0,0,1-2.94.38,7,7,0,0,1-2.83-.57,7.27,7.27,0,0,1-3.88-3.88A7,7,0,0,1,2.88,32a28.46,28.46,0,0,1,1-7.74,28.76,28.76,0,0,1,2.94-7A29.5,29.5,0,0,1,17.31,6.86a28.76,28.76,0,0,1,7-2.94A28.46,28.46,0,0,1,32,2.88Z"/><path d="M32,63a8.93,8.93,0,0,1-3.57-.72,9.16,9.16,0,0,1-4.87-4.87,8.93,8.93,0,0,1-.72-3.57,13.24,13.24,0,0,1,.45-3.43,12,12,0,0,1,1.37-3.18,5.13,5.13,0,0,1,.49-.73l.25-.34a9.44,9.44,0,0,0,.85-1.62,4.76,4.76,0,0,0,.23-1.62,5,5,0,0,0-.42-2.09,5.38,5.38,0,0,0-2.89-2.89,5,5,0,0,0-2.09-.42,4.76,4.76,0,0,0-1.62.23,10,10,0,0,0-1.69.89l-.26.21a5.58,5.58,0,0,1-.74.49,12.24,12.24,0,0,1-3.18,1.37,10.87,10.87,0,0,1-7-.27,9.21,9.21,0,0,1-2.91-2,9.33,9.33,0,0,1-2-2.91A8.93,8.93,0,0,1,1,32a30.51,30.51,0,0,1,1.11-8.24,31,31,0,0,1,3.13-7.4A31.72,31.72,0,0,1,16.36,5.24a30.55,30.55,0,0,1,7.4-3.13,31.34,31.34,0,0,1,16.48,0,30.55,30.55,0,0,1,7.4,3.13A31.72,31.72,0,0,1,58.76,16.36a31,31,0,0,1,3.13,7.4,31.14,31.14,0,0,1,0,16.48,31,31,0,0,1-3.13,7.4A31.72,31.72,0,0,1,47.64,58.76,30.79,30.79,0,0,1,32,63ZM21.08,33.76a8.93,8.93,0,0,1,3.57.72,9.41,9.41,0,0,1,2.91,2,9.17,9.17,0,0,1,2,2.9,8.93,8.93,0,0,1,.72,3.57,8.26,8.26,0,0,1-.48,3,13.28,13.28,0,0,1-1.24,2.37c-.21.3-.36.49-.48.64l-.11.18-.05.09a8.33,8.33,0,0,0-1,2.21,9.71,9.71,0,0,0-.32,2.46A5.2,5.2,0,0,0,27,55.93a5.51,5.51,0,0,0,2.9,2.9,5.2,5.2,0,0,0,2.09.41,27,27,0,0,0,13.73-3.72,27.82,27.82,0,0,0,5.52-4.27,27.53,27.53,0,0,0,4.27-5.52,27.13,27.13,0,0,0,0-27.46,27.53,27.53,0,0,0-4.27-5.52,27.82,27.82,0,0,0-5.52-4.27,26.81,26.81,0,0,0-6.5-2.75,27.5,27.5,0,0,0-14.46,0,26.81,26.81,0,0,0-6.5,2.75,27.82,27.82,0,0,0-5.52,4.27,27.53,27.53,0,0,0-4.27,5.52A27,27,0,0,0,4.76,32a5.2,5.2,0,0,0,.41,2.09,5.57,5.57,0,0,0,1.17,1.73A5.45,5.45,0,0,0,8.07,37a7.07,7.07,0,0,0,4.55.09,8.47,8.47,0,0,0,2.21-1l.09,0,.19-.12c.13-.11.33-.26.57-.43a13.79,13.79,0,0,1,2.43-1.28A8.33,8.33,0,0,1,21.08,33.76ZM42.92,16.53a4.33,4.33,0,0,0-1.76.36,4.61,4.61,0,0,0-2.43,2.43,4.48,4.48,0,0,0,0,3.52,4.61,4.61,0,0,0,2.43,2.43,4.48,4.48,0,0,0,3.52,0,4.37,4.37,0,0,0,1.45-1,4.56,4.56,0,0,0,1-1.45,4.6,4.6,0,0,0,0-3.52,4.56,4.56,0,0,0-1-1.45,4.37,4.37,0,0,0-1.45-1A4.33,4.33,0,0,0,42.92,16.53ZM17.44,29.27a4.33,4.33,0,0,0,1.76-.36,4.61,4.61,0,0,0,2.43-2.43,4.48,4.48,0,0,0,0-3.52,4.61,4.61,0,0,0-2.43-2.43,4.48,4.48,0,0,0-3.52,0,4.37,4.37,0,0,0-1.45,1,4.56,4.56,0,0,0-1,1.45,4.6,4.6,0,0,0,0,3.52,4.56,4.56,0,0,0,1,1.45,4.37,4.37,0,0,0,1.45,1A4.33,4.33,0,0,0,17.44,29.27ZM28.36,22a4.33,4.33,0,0,0,1.76-.36,4.61,4.61,0,0,0,2.43-2.43,4.48,4.48,0,0,0,0-3.52,4.37,4.37,0,0,0-1-1.45,4.56,4.56,0,0,0-1.45-1,4.6,4.6,0,0,0-3.52,0,4.56,4.56,0,0,0-1.45,1,4.37,4.37,0,0,0-1,1.45,4.48,4.48,0,0,0,0,3.52,4.61,4.61,0,0,0,2.43,2.43A4.33,4.33,0,0,0,28.36,22ZM39.28,51.11A4.49,4.49,0,0,0,41,50.76a4.74,4.74,0,0,0,2.44-2.44,4.6,4.6,0,0,0,0-3.52,4.56,4.56,0,0,0-1-1.45,4.37,4.37,0,0,0-1.45-1,4.48,4.48,0,0,0-3.52,0,4.57,4.57,0,0,0-2.79,4.19,4.33,4.33,0,0,0,.36,1.76,4.37,4.37,0,0,0,1,1.45,4.56,4.56,0,0,0,1.45,1A4.49,4.49,0,0,0,39.28,51.11Zm7.28-10.92a4.49,4.49,0,0,0,1.76-.35,4.74,4.74,0,0,0,2.44-2.44,4.6,4.6,0,0,0,0-3.52,4.56,4.56,0,0,0-1-1.45,4.37,4.37,0,0,0-1.45-1,4.48,4.48,0,0,0-3.52,0,4.61,4.61,0,0,0-2.43,2.43,4.48,4.48,0,0,0,0,3.52,4.37,4.37,0,0,0,1,1.45,4.56,4.56,0,0,0,1.45,1A4.49,4.49,0,0,0,46.56,40.19Z"/></svg>